# AST/ASF file generated using VICON BodyLanguage
# -----------------------------------------------
:version 1.10
:name VICON
:units
  mass 1.0
  length 0.45
  angle deg
:documentation
   .ast/.asf automatically generated from VICON data using
   VICON BodyBuilder and BodyLanguage model FoxedUp or BRILLIANT.MOD
:root
   order TX TY TZ RX RY RZ
   axis XYZ
   position 0 0 0  
   orientation 0 0 0 
:bonedata
  begin
     id 1 
     name lhipjoint
     direction 0.522423 -0.726805 0.445902 
     length 2.25074 
     axis 0 0 0  XYZ
  end
  begin
     id 2 
     name lfemur
     direction 0.34202 -0.939693 0  
     length 6.54609  
     axis 0 0 20  XYZ
    dof rx ry rz
    limits (-160.0 20.0)
           (-70.0 70.0)
           (-60.0 70.0)
  end
  begin
     id 3 
     name ltibia
     direction 0.34202 -0.939693 0   
     length 7.7528   
     axis 0 0 20   XYZ
    dof rx
    limits (-10.0 170.0)
  end
  begin
     id 4 
     name lfoot
     direction 0.143696 -0.394801 0.90746   
     length 1.73269   
     axis -90 7.62852e-016 20   XYZ
    dof rx rz
    limits (-45.0 90.0)
           (-70.0 20.0)
  end
  begin
     id 5 
     name ltoes
     direction 1.53633e-011 -4.21912e-011 1   
     length 0.858383   
     axis -90 7.62852e-016 20   XYZ
    dof rx
    limits (-90.0 20.0)
  end
  begin
     id 6 
     name rhipjoint
     direction -0.515943 -0.73016 0.447961   
     length 2.2404  
     axis 0 0 0  XYZ 
  end
  begin
     id 7 
     name rfemur
     direction -0.34202 -0.939693 0   
     length 6.84377   
     axis 0 0 -20   XYZ
    dof rx ry rz
    limits (-160.0 20.0)
           (-70.0 70.0)
           (-70.0 60.0)
  end
  begin
     id 8 
     name rtibia
     direction -0.34202 -0.939693 0   
     length 7.57596   
     axis 0 0 -20   XYZ
    dof rx
    limits (-10.0 170.0)
 end
 begin
     id 9 
     name rfoot
     direction -0.0999372 -0.274575 0.956358   
     length 1.78783  
     axis -90 -7.62852e-016 -20   XYZ
    dof rx rz
    limits (-45.0 90.0)
           (-20.0 70.0)
  end
  begin
     id 10 
     name rtoes
     direction -1.53535e-011 -4.21895e-011 1   
     length 0.898614   
     axis -90 -7.62852e-016 -20   XYZ
    dof rx
    limits (-90.0 20.0)
  end
  begin
     id 11 
     name lowerback
     direction -0.011775 0.996164 -0.0867116   
     length 1.91499   
     axis 0 0 0   XYZ
    dof rx ry rz
    limits (-20.0 45.0)
           (-30.0 30.0)
           (-30.0 30.0)
  end
  begin
     id 12 
     name upperback
     direction -0.00189771 0.999673 -0.0254833   
     length 1.92213   
     axis 0 0 0   XYZ
    dof rx ry rz
    limits (-20.0 45.0)
           (-30.0 30.0)
           (-30.0 30.0)
  end
  begin
     id 13 
     name thorax
     direction 0.00335995 0.999878 0.0152401   
     length 1.93138   
     axis 0 0 0   XYZ
    dof rx ry rz
    limits (-20.0 45.0)
           (-30.0 30.0)
           (-30.0 30.0)
  end
  begin
     id 14 
     name lowerneck
     direction 0.00233191 0.998509 0.0545404   
     length 1.59408   
     axis 0 0 0   XYZ
    dof rx ry rz
    limits (-20.0 45.0)
           (-30.0 30.0)
           (-30.0 30.0)
  end
  begin
     id 15 
     name upperneck
     direction 0.07881 0.9956 -0.0506934   
     length 1.59344   
     axis 0 0 0   XYZ
    dof rx ry rz
    limits (-20.0 45.0)
           (-30.0 30.0)
           (-30.0 30.0)
  end
  begin
     id 16
     name head
     direction 0.0261681 0.999378 -0.0236299  
     length 1.60935  
     axis 0 0 0   XYZ
    dof rx ry rz
    limits (-20.0 45.0)
           (-30.0 30.0)
           (-30.0 30.0)
  end
  begin
     id 17 
     name lclavicle
     direction 0.96643 0.252035 0.0499195  
     length 3.82153  
     axis 0 0 0   XYZ
    dof ry rz
    limits (-20.0 10.0)
           (0.0 20.0)
  end
  begin
     id 18 
     name lhumerus
     direction 1 -4.48967e-011 -2.01614e-018   
     length 4.87796   
     axis 180 -30 -90   XYZ
    dof rx ry rz
    limits (-60.0 90.0)
           (-90.0 90.0)
           (-90.0 90.0)
  end
  begin
     id 19
     name lradius
     direction 1 -4.48958e-011 3.1409e-027   
     length 3.23169   
     axis 180 -30 -90   XYZ
    dof rx
    limits (-10.0 170.0)
  end
  begin
     id 20
     name lwrist
     direction 1 -4.48924e-011 1.0365e-027   
     length 1.61584   
     axis -2.56395e-016 90 90   XYZ
    dof ry
    limits (-180.0 0.0)
 end
  begin
     id 21 
     name lhand
     direction 1 -4.49055e-011 2.09488e-027   
     length 0.731324   
     axis -1.32723e-015 90 90   XYZ
    dof rx rz
    limits (-90.0 90.0)
           (-45.0 45.0)
  end
  begin
     id 22 
     name lfingers
     direction 1 -4.48935e-011 4.14981e-027   
     length 0.589612   
     axis -2.6545e-015 90 90   XYZ
    dof rx
    limits (0.0 90.0)
  end
  begin
     id 23
     name lthumb
     direction 0.707107 -6.35097e-011 0.707107   
     length 0.846569   
     axis -90 45 5.05613e-014   XYZ
    dof rx rz
    limits (-45.0 45.0)
           (-45.0 45.0)
  end
  begin
     id 24 
     name rclavicle
     direction -0.979337 0.201016 0.0221522   
     length 3.73827  
     axis 0 0 0   XYZ 
    dof ry rz
    limits (-10.0 20.0)
           (-20.0 0.0)
  end
  begin
     id 25 
     name rhumerus
     direction -1 -4.48971e-011 1.65907e-027  
     length 4.9143   
     axis 180 30 90   XYZ
    dof rx ry rz
    limits (-90.0 60.0)
           (-90.0 90.0)
           (-90.0 90.0)
  end
  begin
     id 26 
     name rradius
     direction -1 -4.4894e-011 2.17871e-028   
     length 3.29093   
     axis 180 30 90   XYZ
    dof rx
    limits (-10.0 170.0)
  end
  begin
     id 27 
     name rwrist
     direction -1 -4.48971e-011 1.04038e-027   
     length 1.64546   
     axis -2.56395e-016 -90 -90   XYZ
    dof ry
    limits (-180.0 0.0)
  end
  begin
     id 28
     name rhand
     direction -1 -4.49017e-011 2.08843e-027   
     length 0.54512   
     axis -1.32723e-015 -90 -90   XYZ
    dof rx rz
    limits (-90.0 90.0)
           (-45.0 45.0)
  end
  begin
     id 29
     name rfingers
     direction -1 -4.48918e-011 4.1439e-027   
     length 0.43949   
     axis -2.6545e-015 -90 -90   XYZ
    dof rx
    limits (0.0 90.0)
  end
  begin
     id 30
     name rthumb
     direction -0.707107 -6.35065e-011 0.707107   
     length 0.631022   
     axis -90 -45 -5.05613e-014   XYZ
    dof rx rz
    limits (-45.0 45.0)
           (-45.0 45.0)
  end
:hierarchy
  begin
    root lhipjoint rhipjoint lowerback
    lhipjoint lfemur
    lfemur ltibia
    ltibia lfoot
    lfoot ltoes
    rhipjoint rfemur
    rfemur rtibia
    rtibia rfoot
    rfoot rtoes
    lowerback upperback
    upperback thorax
    thorax lowerneck lclavicle rclavicle
    lowerneck upperneck
    upperneck head
    lclavicle lhumerus
    lhumerus lradius
    lradius lwrist
    lwrist lhand lthumb
    lhand lfingers
    rclavicle rhumerus
    rhumerus rradius
    rradius rwrist
    rwrist rhand rthumb
    rhand rfingers
  end

#!OML:ASF H:\BreakDance\Project 1\Capture day 1\Session 1\Male.ASF
:FULLY-SPECIFIED
:DEGREES
1040
root -15.9653 8.72604 5.21507 258.465 41.2966 -37.9728
lowerback -1.83172 5.86863 -5.44244
upperback -0.106936 8.79908 -13.0388
thorax 2.25895 4.62799 -10.4694
lowerneck -0.988412 3.42642 3.90552
upperneck 20.0411 2.99295 12.6017
head 6.10733 3.00427 3.57634
rclavicle 8.90555e-014 -4.45278e-014
rhumerus -10.0936 -38.5301 16.4453
rradius 32.9243
rwrist 1.24381
rhand -40.8559 -36.798
rfingers 7.12502
rthumb -13.7928 -786.321
lclavicle 8.90555e-014 -4.45278e-014
lhumerus -56.6149 64.0157 2.75341
lradius 54.4364
lwrist 39.7556
lhand -51.4828 -234.82
lfingers 7.12502
lthumb -24.0116 -263.338
rfemur -43.5725 -11.2691 31.9538
rtibia 28.8897
rfoot 15.1756 10.813
rtoes 42.0087
lfemur -1.08703 -2.75776 27.7776
ltibia 126.948
lfoot -26.3361 -34.4464
ltoes 21.6148
1041
root -16.0317 8.53893 5.23877 259.581 41.8603 -37.773
lowerback -0.755989 5.8811 -5.18524
upperback 0.398695 8.71458 -12.6139
thorax 2.13905 4.59447 -10.2384
lowerneck -0.899645 3.33184 3.76726
upperneck 20.1011 2.87123 12.6098
head 6.11202 2.93284 3.59524
rclavicle 3.18055e-015 1.14301e-014
rhumerus -11.6125 -38.2121 14.7798
rradius 32.4718
rwrist 0.718676
rhand -40.4531 -37.7861
rfingers 7.12502
rthumb -13.4046 -787.335
lclavicle 3.18055e-015 1.14301e-014
lhumerus -53.9169 63.3469 7.53843
lradius 52.4089
lwrist 41.682
lhand -51.9903 -235.158
lfingers 7.12502
lthumb -24.4982 -263.611
rfemur -46.2408 -12.6592 33.9862
rtibia 30.08
rfoot 16.5199 12.3975
rtoes 42.8892
lfemur -2.93958 -1.3069 29.0505
ltibia 128.791
lfoot -27.9828 -35.819
ltoes 21.3088
1042
root -16.1021 8.3576 5.25533 260.794 42.6503 -37.308
lowerback 0.188433 5.90727 -5.19409
upperback 0.915282 8.68356 -12.2581
thorax 2.08668 4.58493 -9.91938
lowerneck -0.911017 3.25817 3.76324
upperneck 20.2488 2.75408 12.6189
head 6.16682 2.88301 3.59893
rclavicle -1.90833e-014 -6.50026e-014
rhumerus -13.0274 -37.2778 12.6894
rradius 32.1615
rwrist -0.0138613
rhand -39.8528 -38.6049
rfingers 7.12502
rthumb -12.8258 -788.191
lclavicle -1.90833e-014 -6.50026e-014
lhumerus -51.4076 62.6579 11.8476
lradius 50.5131
lwrist 43.8502
lhand -52.5174 -236.445
lfingers 7.12502
lthumb -25.0034 -264.829
rfemur -48.6568 -13.9848 36.0289
rtibia 31.1665
rfoot 18.2642 14.0016
rtoes 43.6537
lfemur -4.76231 0.0851203 29.6107
ltibia 130.5
lfoot -28.4993 -38.0788
ltoes 21.9075
1043
root -16.1785 8.18633 5.26554 262.146 43.6981 -36.5797
lowerback 0.940986 5.9452 -5.56101
upperback 1.41412 8.69665 -11.9695
thorax 2.09034 4.59035 -9.45451
lowerneck -0.895505 3.21192 3.77282
upperneck 20.407 2.66224 12.7236
head 6.21801 2.85571 3.63264
rclavicle 1.01778e-013 -7.83212e-014
rhumerus -14.0222 -35.9306 10.0635
rradius 31.778
rwrist -0.624043
rhand -39.1393 -39.3291
rfingers 7.12502
rthumb -12.1379 -788.957
lclavicle 1.01778e-013 -7.83212e-014
lhumerus -49.2448 61.983 15.5702
lradius 48.7467
lwrist 46.1376
lhand -53.0693 -238.486
lfingers 7.12502
lthumb -25.5321 -266.796
rfemur -50.8162 -15.1891 37.9963
rtibia 32.1125
rfoot 20.2897 15.5945
rtoes 44.1624
lfemur -6.58548 1.54054 29.5821
ltibia 132.082
lfoot -27.8808 -41.0075
ltoes 23.1911
1044
root -16.2555 8.02329 5.26896 263.606 44.738 -35.5675
lowerback 1.58925 5.98704 -5.9771
upperback 1.85775 8.7111 -11.6549
thorax 2.08288 4.59032 -8.92839
lowerneck -0.675698 3.20174 3.63369
upperneck 20.5311 2.62875 12.9969
head 6.21168 2.85335 3.74223
rclavicle 8.26944e-014 2.54444e-014
rhumerus -14.534 -34.2247 6.92921
rradius 31.3398
rwrist -0.945986
rhand -38.153 -39.5706
rfingers 7.12502
rthumb -11.1868 -789.252
lclavicle 8.26944e-014 2.54444e-014
lhumerus -47.7256 61.3647 18.5101
lradius 47.0835
lwrist 48.3654
lhand -53.8025 -242.012
lfingers 7.12502
lthumb -26.2342 -89.7812
rfemur -52.6112 -16.3485 40.1222
rtibia 32.8624
rfoot 22.5589 17.1095
rtoes 44.5016
lfemur -8.36183 3.09202 29.5426
ltibia 133.551
lfoot -26.7496 -43.6201
ltoes 24.115
1045
root -16.3335 7.87295 5.27105 265.213 45.9644 -34.3508
lowerback 2.03018 6.03538 -6.72963
upperback 2.27269 8.75585 -11.4034
thorax 2.12874 4.59601 -8.26757
lowerneck -0.417734 3.20867 3.45308
upperneck 20.6484 2.60313 13.4152
head 6.19224 2.8628 3.90561
rclavicle -6.04305e-014 1.30403e-013
rhumerus -14.7772 -32.4584 3.4044
rradius 30.844
rwrist -0.805424
rhand -37.1584 -39.7127
rfingers 7.12502
rthumb -10.2275 -789.444
lclavicle -6.04305e-014 1.30403e-013
lhumerus -46.5846 60.9942 20.8659
lradius 45.4543
lwrist 50.3392
lhand -54.477 -248.42
lfingers 7.12502
lthumb -26.8798 -83.471
rfemur -54.1101 -17.3541 42.0914
rtibia 33.3944
rfoot 24.8628 18.326
rtoes 44.7861
lfemur -10.1253 4.88961 29.3826
ltibia 134.948
lfoot -25.3067 -45.8073
ltoes 24.578
1046
root -16.4072 7.72946 5.26999 266.863 46.991 -32.9494
lowerback 2.41423 6.08511 -7.26653
upperback 2.68809 8.81095 -11.154
thorax 2.23969 4.60957 -7.72559
lowerneck -0.146082 3.22226 3.23759
upperneck 20.7485 2.5692 13.97
head 6.16164 2.87528 4.11859
rclavicle -7.31528e-014 -1.74931e-014
rhumerus -14.8488 -30.7047 -0.431096
rradius 30.2883
rwrist -0.179377
rhand -36.0825 -39.6403
rfingers 7.12502
rthumb -9.18936 -789.42
lclavicle -7.31528e-014 -1.74931e-014
lhumerus -45.6922 60.919 22.7457
lradius 43.8289
lwrist 51.9871
lhand -55.0418 -254.108
lfingers 7.12502
lthumb -27.4202 -77.8675
rfemur -55.1825 -18.369 44.2724
rtibia 33.6579
rfoot 27.2245 19.1589
rtoes 45.1603
lfemur -11.6826 6.91172 29.956
ltibia 136.265
lfoot -23.9566 -47.8777
ltoes 24.7559
1047
root -16.4795 7.59334 5.26683 268.502 47.9176 -31.4901
lowerback 2.7696 6.1324 -7.69088
upperback 3.13672 8.88343 -10.9879
thorax 2.4355 4.63655 -7.33376
lowerneck -0.0510592 3.20394 3.12462
upperneck 20.8479 2.44899 14.6238
head 6.1692 2.86648 4.34896
rclavicle 1.46306e-013 -1.90833e-014
rhumerus -14.9624 -28.9713 -4.48766
rradius 29.6584
rwrist 0.780459
rhand -35.2193 -39.5822
rfingers 7.12502
rthumb -8.35638 -789.397
lclavicle 1.46306e-013 -1.90833e-014
lhumerus -44.656 61.1683 24.4169
lradius 42.1759
lwrist 53.3045
lhand -55.4814 -259.349
lfingers 7.12502
lthumb -27.8405 -72.6938
rfemur -55.8559 -19.2735 46.365
rtibia 33.664
rfoot 29.4141 19.4605
rtoes 45.7543
lfemur -12.9688 9.20147 31.2194
ltibia 137.504
lfoot -23.0583 -49.8182
ltoes 24.4954
1048
root -16.5508 7.46326 5.26048 270.054 48.5782 -30.0038
lowerback 3.17351 6.16796 -7.77374
upperback 3.6219 8.94937 -10.8504
thorax 2.69711 4.67099 -7.16288
lowerneck -0.0887727 3.15359 3.05461
upperneck 20.918 2.26022 15.3235
head 6.19707 2.8329 4.58797
rclavicle -8.5875e-014 7.79236e-014
rhumerus -15.106 -27.0705 -8.73825
rradius 28.9818
rwrist 1.84291
rhand -34.5598 -39.4222
rfingers 7.12502
rthumb -7.7199 -789.261
lclavicle -8.5875e-014 7.79236e-014
lhumerus -43.55 61.5971 25.9198
lradius 40.6205
lwrist 54.4132
lhand -55.9927 -262.374
lfingers 7.12502
lthumb -28.3292 -69.7486
rfemur -56.0676 -20.1064 48.4655
rtibia 33.3986
rfoot 31.4225 19.3164
rtoes 46.5732
lfemur -13.7281 11.7857 33.7852
ltibia 138.633
lfoot -22.8358 -52.1441
ltoes 24.112
1049
root -16.6233 7.34202 5.25459 271.539 49.1986 -28.5252
lowerback 3.59362 6.18773 -7.83295
upperback 4.11657 8.99917 -10.7574
thorax 2.97162 4.70009 -7.05568
lowerneck -0.178595 3.07324 2.9845
upperneck 20.9498 2.02806 15.9992
head 6.22699 2.77453 4.81822
rclavicle -3.49861e-014 3.97569e-014
rhumerus -15.2744 -24.9252 -13.1226
rradius 28.2411
rwrist 2.989
rhand -34.0778 -39.0948
rfingers 7.12502
rthumb -7.25464 -788.95
lclavicle -3.49861e-014 3.97569e-014
lhumerus -42.4633 62.0382 27.2953
lradius 39.2726
lwrist 55.4211
lhand -56.8266 -262.651
lfingers 7.12502
lthumb -29.1259 -69.6067
rfemur -55.9162 -20.7359 50.2207
rtibia 32.9356
rfoot 33.1192 18.8471
rtoes 47.5207
lfemur -13.8866 14.5912 37.2458
ltibia 139.642
lfoot -23.7526 -54.5269
ltoes 23.1851
1050
root -16.6956 7.22853 5.24885 272.926 49.6795 -27.0457
lowerback 4.08566 6.18805 -7.7365
upperback 4.60775 9.01511 -10.6645
thorax 3.22312 4.71878 -7.04249
lowerneck -0.258347 2.97609 2.89494
upperneck 20.942 1.79028 16.5799
head 6.24548 2.69976 5.0188
rclavicle 8.26944e-014 1.22451e-013
rhumerus -15.4912 -22.2262 -17.6206
rradius 27.5134
rwrist 3.93306
rhand -33.8653 -38.8028
rfingers 7.12502
rthumb -7.04956 -788.665
lclavicle 8.26944e-014 1.22451e-013
lhumerus -41.5059 62.3559 28.5488
lradius 38.2289
lwrist 56.4216
lhand -57.7122 -261.97
lfingers 7.12502
lthumb -29.9713 -70.438
rfemur -55.3823 -21.1041 51.6455
rtibia 32.3229
rfoot 34.4843 18.2156
rtoes 48.5038
lfemur -13.2889 17.4606 41.8162
ltibia 140.518
lfoot -26.0583 -57.0369
ltoes 21.9437
